HIERARCHY
ROOT Hips
{
  OFFSET -22.8418 90.4822 14.0838
  CHANNELS 6 Xposition Yposition Zposition Zrotation Xrotation Yrotation
  JOINT ToSpine
  {
    OFFSET -2.69724 7.43032 -0.144315
    CHANNELS 3 Zrotation Xrotation Yrotation
    JOINT Spine
    {
      OFFSET -0.0310711 10.7595 1.96963
      CHANNELS 3 Zrotation Xrotation Yrotation
      JOINT Spine1
      {
        OFFSET 13.1342 3.43533 0.764692
        CHANNELS 3 Zrotation Xrotation Yrotation
        JOINT Neck
        {
          OFFSET 29.8703 7.82586 -0.130764
          CHANNELS 3 Zrotation Xrotation Yrotation
          JOINT Head
          {
            OFFSET 9.52751 0.295786 -0.907742
            CHANNELS 3 Zrotation Xrotation Yrotation
            End Site
            {
              OFFSET 16.4037 0.713936 2.7358
            }
          }
        }
        JOINT LeftShoulder
        {
          OFFSET 27.5574 4.95586 2.47156
          CHANNELS 3 Zrotation Xrotation Yrotation
          JOINT LeftArm
          {
            OFFSET 1.20734 -0.998971 20.1238
            CHANNELS 3 Zrotation Xrotation Yrotation
            JOINT LeftForeArm
            {
              OFFSET 26.8049 -0.0536703 -0.155908
              CHANNELS 3 Zrotation Xrotation Yrotation
              JOINT LeftHand
              {
                OFFSET 26.6817 0 0.320147
                CHANNELS 3 Zrotation Xrotation Yrotation
                End Site
                {
                  OFFSET 18.6119 0 0.382219
                }
              }
            }
          }
        }
        JOINT RightShoulder
        {
          OFFSET 27.5927 4.71444 -2.65209
          CHANNELS 3 Zrotation Xrotation Yrotation
          JOINT RightArm
          {
            OFFSET 2.83739 -1.17114 -18.7564
            CHANNELS 3 Zrotation Xrotation Yrotation
            JOINT RightForeArm
            {
              OFFSET 28.839 -0.0548439 1.22491
              CHANNELS 3 Zrotation Xrotation Yrotation
              JOINT RightHand
              {
                OFFSET 26.5114 0 -0.101894
                CHANNELS 3 Zrotation Xrotation Yrotation
                End Site
                {
                  OFFSET 18.2168 0 0
                }
              }
            }
          }
        }
      }
    }
  }
  JOINT LeftUpLeg
  {
    OFFSET -4.76168 -1.9167 -10.2353
    CHANNELS 3 Zrotation Xrotation Yrotation
    JOINT LeftLeg
    {
      OFFSET 2.55951 -42.0585 -8.02213
      CHANNELS 3 Zrotation Xrotation Yrotation
      JOINT LeftFoot
      {
        OFFSET 3.16357 -42.5282 -3.95426
        CHANNELS 3 Zrotation Xrotation Yrotation
        JOINT LeftToeBase
        {
          OFFSET 0.346054 -6.02161 12.8035
          CHANNELS 3 Zrotation Xrotation Yrotation
          End Site
          {
            OFFSET 0.134235 -1.35082 5.13018
          }
        }
      }
    }
  }
  JOINT RightUpLeg
  {
    OFFSET -4.94151 -1.41743 10.6446
    CHANNELS 3 Zrotation Xrotation Yrotation
    JOINT RightLeg
    {
      OFFSET -2.56294 -42.0364 -7.94377
      CHANNELS 3 Zrotation Xrotation Yrotation
      JOINT RightFoot
      {
        OFFSET -3.0952 -42.555 -4.02241
        CHANNELS 3 Zrotation Xrotation Yrotation
        JOINT RightToeBase
        {
          OFFSET -0.0828122 -6.13587 12.8035
          CHANNELS 3 Zrotation Xrotation Yrotation
          End Site
          {
            OFFSET -0.131328 -1.35082 5.13018
          }
        }
      }
    }
  }
}
MOTION
Frames:	20
Frame Time:	0.0333333
-11.6602 96.4632 -72.0423 -8.45542 -72.7767 -97.6334 -70.1915 0 88.8779 81.0341 73.7476 11.6637 2.35554 23.9154 0.662484 -150.151 21.7874 178.006 -158.95 61.2741 -167.262 0.499127 -12.5999 -33.3302 -73.9532 52.1867 -77.4049 10.7197 21.4903 -28.6159 0.420957 0.000575496 0.35866 -1.91286 6.80034 42.5744 -69.7978 -35.2429 94.4084 11.3001 -12.7458 42.231 0.58676 0.000331152 0.0646654 -36.2891 2.48552 97.8138 -1.88991 30.7611 -3.54927 -4.0678 -2.38471 0.210601 6.47551 -14.7401 11.173 -59.2475 5.53903 80.3454 2.05053 27.6272 6.85338 -12.6653 -12.6669 1.39185 1.01951 -5.36847 -3.4046 
-11.5245 96.1349 -67.5264 -12.5491 -71.8325 -101.77 -70.1915 0 88.8779 80.0482 74.1738 13.6672 2.48002 24.6085 -0.314224 -151.41 21.5796 178.975 -159.772 61.088 -166.755 0.551994 -12.3798 -33.1836 -77.554 52.8188 -72.8225 10.5518 24.3537 -27.4493 0.420957 0.000575496 0.35866 -1.86303 7.12661 40.5605 -70.3195 -35.1214 97.8384 11.9909 -12.3092 44.941 0.58676 0.000331152 0.0646654 -35.6166 2.18531 95.2899 -0.781206 17.4789 1.13175 -8.76312 5.6739 1.87721 4.58182 -11.2287 8.31228 -62.6866 5.44205 80.2751 2.1044 25.5004 10.2873 -10.5892 -14.8201 1.2906 1.49201 -3.97331 -7.60401 
-11.2729 95.433 -62.9388 -17.3397 -71.0144 -106.161 -70.1915 0 88.8779 79.3315 74.6474 16.1989 3.23431 25.4826 -1.58767 -152.908 21.4337 -179.897 -160.837 60.9815 -166.293 0.613627 -12.0785 -33.529 -83.3149 52.4292 -66.9977 10.2837 28.0074 -26.1522 0.420957 0.000575496 0.35866 -1.77123 7.25712 38.8112 -70.9591 -34.6916 100.722 11.0233 -10.5173 46.9249 0.58676 0.000331152 0.0646654 -34.1968 2.66608 93.8921 0.416102 10.479 4.15525 -12.7162 11.0897 3.63218 5.03026 -11.6712 5.68454 -65.4127 5.75519 80.4511 1.82244 25.2466 13.2837 -11.8406 -15.1281 1.29932 2.00499 -7.6926 -11.7011 
-10.9752 94.4096 -58.3323 -20.025 -70.5082 -107.842 -70.1915 0 88.8779 81.4733 75.061 15.9366 2.95044 26.1033 -2.40358 -153.317 21.1849 -179.783 -160.785 60.7337 -166.582 0.687645 -11.7531 -33.5371 -88.7866 51.3191 -61.8626 9.61956 31.8596 -24.519 0.420957 0.000575496 0.35866 -1.84941 7.3058 39.7051 -72.7032 -32.9818 101.244 10.6183 -9.7641 47.9471 0.58676 0.000331152 0.0646654 -32.216 3.88179 93.5955 0.526393 10.4241 8.63365 -14.6105 13.5121 4.57529 4.98015 -11.2087 3.33766 -67.4994 6.49313 80.8014 1.20008 26.7962 14.7014 -9.93391 -16.8073 1.28736 2.13587 -9.19249 -12.2487 
-10.7728 93.1967 -53.2951 -20.3983 -70.6323 -108.274 -70.1915 0 88.8779 81.2362 75.6702 15.1482 1.85935 26.4549 -1.02314 -153.383 21.2279 179.944 -160.648 60.7716 -166.974 0.733895 -11.5417 -33.686 -94.0236 49.975 -57.3007 9.15826 35.4197 -22.9168 0.420957 0.000575496 0.35866 -1.94629 7.30465 41.0235 -75.1101 -31.5976 99.9705 10.522 -9.59546 48.177 0.58676 0.000331152 0.0646654 -31.2148 4.58985 94.7707 -1.89392 14.6013 13.2047 -13.4107 14.1271 4.43848 3.15867 -7.50612 2.51248 -68.8266 6.37148 81.9124 0.415429 31.0361 15.2459 -7.30388 -17.1944 1.3382 2.16985 -13.685 -13.5667 
-10.4052 92.779 -48.0626 -19.7593 -71.2232 -108.922 -70.1915 0 88.8779 75.8575 75.8489 19.0391 2.57049 27.0343 -1.37 -152.477 21.2041 178.836 -160.089 60.7177 -167.698 0.830592 -11.1383 -33.1965 -96.7987 48.9667 -54.4374 9.24198 37.745 -22.0924 0.420957 0.000575496 0.35866 -2.00833 7.17088 42.3876 -77.4756 -31.3972 97.806 10.4588 -9.77154 47.4897 0.58676 0.000331152 0.0646654 -31.5484 3.92543 98.2489 -4.45078 20.5456 9.94123 -3.53438 8.73066 1.31246 -1.7942 4.07955 -0.301981 -70.4773 5.22886 85.9017 1.04602 34.8025 9.80491 -5.82147 -13.4614 1.22924 2.48519 -21.4374 -7.66496 
-9.76819 92.7366 -42.5901 -17.996 -72.1095 -109.385 -70.1915 0 88.8779 68.9824 75.5913 23.3997 3.11539 27.2569 -1.44383 -151.052 21.1209 178.021 -160.024 60.6119 -167.961 0.955103 -10.5871 -32.9177 -98.0993 48.7223 -52.3634 9.28486 37.6033 -21.9708 0.420957 0.000575496 0.35866 -2.09896 7.0068 44.3142 -78.2683 -31.1366 95.8793 9.79127 -9.82162 45.4392 0.58676 0.000331152 0.0646654 -32.3055 1.38347 103.561 -3.53065 27.0826 5.60707 4.99628 2.89752 -0.673082 -4.51321 10.4194 -0.646276 -70.3121 2.27352 87.4773 2.59061 41.5395 6.61909 -1.75412 -5.95573 0.784968 3.51454 -27.9904 -0.31248 
-9.18299 92.8716 -37.4815 -11.7883 -73.7033 -105.165 -70.1915 0 88.8779 66.6334 75.4355 21.931 2.45533 26.8105 0.0466959 -149.833 21.3746 177.172 -159.358 60.8614 -168.252 0.918478 -10.7465 -33.1764 -97.5508 48.5871 -52.8496 8.46352 35.959 -21.7058 0.420957 0.000575496 0.35866 -2.10207 6.70823 45.6906 -78.0355 -31.2042 94.4319 7.82169 -8.78019 42.1679 0.58676 0.000331152 0.0646654 -34.1468 -1.33618 107.744 -1.69827 31.9692 0.439073 7.02451 -0.785348 -1.01499 -4.00772 9.15169 -0.466835 -67.9189 -2.4238 86.124 4.06744 50.9346 6.24902 -2.33678 3.89063 0.240736 4.55864 -31.6114 3.47837 
-9.08358 93.64 -33.1532 -3.78022 -74.947 -97.9644 -70.1915 0 88.8779 69.4248 75.6007 16.4955 1.52927 26.4325 0.927434 -149.229 21.6122 176.021 -158.76 61.1399 -168.62 0.813516 -11.2464 -32.4756 -95.2885 49.4721 -55.6093 8.31774 32.8786 -22.5429 0.420957 0.000575496 0.35866 -2.13471 6.53327 46.9939 -77.9135 -31.8095 93.0075 5.51709 -7.0139 38.6786 0.58676 0.000331152 0.0646654 -37.2516 -2.71058 109.305 -1.57937 33.4459 -1.70544 5.90211 -3.42503 -0.934892 -3.45265 8.89975 -2.03379 -63.7786 -3.73408 85.8687 5.01599 59.8614 4.21164 -5.82124 7.45344 0.667515 3.17565 -30.4673 -6.09496 
-9.05905 94.2705 -29.421 5.4286 -75.2609 -88.1571 -70.1915 0 88.8779 72.2665 75.2727 13.133 1.59411 25.7461 1.04123 -149.526 21.9904 175.751 -159.033 61.5526 -168.487 0.752951 -11.5392 -32.2244 -89.9044 51.3294 -61.4688 8.83976 27.5341 -24.5862 0.420957 0.000575496 0.35866 -2.1895 6.58952 47.5096 -76.1419 -32.4772 92.9783 3.09611 -4.54355 35.0427 0.58676 0.000331152 0.0646654 -39.5376 -3.61329 107.766 -1.82366 34.233 -3.07978 5.86214 -4.66925 -0.973586 -3.16407 7.47591 -0.904491 -58.626 -4.07758 84.8252 4.45638 64.3426 -7.62163 -8.37895 3.41797 1.24592 3.23122 -25.5572 3.21933 
-8.72438 95.2738 -25.8845 17.1219 -74.6396 -74.702 -70.1915 0 88.8779 75.2191 74.2434 11.5973 2.43227 24.6659 0.374162 -149.858 22.4296 175.627 -158.506 61.9975 -168.432 0.602042 -12.2066 -32.5951 -82.4602 52.6268 -69.1857 9.22058 20.2098 -27.5671 0.420957 0.000575496 0.35866 -2.20961 6.51228 48.1841 -74.0617 -32.6425 93.1929 1.73503 -2.85066 32.7089 0.58676 0.000331152 0.0646654 -41.3592 -4.27155 104.608 -2.06344 34.7917 -5.2 5.69709 -3.67304 -0.92768 -1.81634 2.87207 2.25589 -54.1249 -3.73097 82.9142 3.41274 64.1023 -10.6092 -8.10415 -1.0196 1.18937 2.76428 -21.4481 0.97512 
-8.72878 95.9132 -22.5093 29.077 -73.2597 -61.6416 -70.1915 0 88.8779 76.7781 73.4616 9.57079 2.88941 23.4582 1.08377 -149.265 22.823 174.667 -155.132 62.2826 -170.346 0.467178 -12.7937 -32.8399 -77.2829 52.7481 -75.1497 9.63588 15.5695 -32.0132 0.420957 0.000575496 0.35866 -2.18745 6.325 48.8234 -72.8476 -32.5134 92.794 1.46891 -2.5842 31.2117 0.58676 0.000331152 0.0646654 -43.5319 -4.93158 102.337 -2.26515 34.8651 -6.90127 5.00848 -3.13715 -0.845302 -0.153367 -0.686991 2.3962 -50.3995 -3.85003 81.7469 2.63975 60.5983 -9.55077 -9.04635 -3.75733 1.32649 2.47026 -20.9433 -5.29705 
-8.95096 96.3994 -19.1956 36.1428 -71.2257 -53.4393 -70.1915 0 88.8779 75.1496 72.8685 10.7601 3.62946 22.5639 1.98131 -149.481 23.3812 174.279 -154.616 62.8218 -170.84 0.457036 -12.8649 -32.6131 -75.5197 52.1044 -78.7022 9.74462 13.1657 -36.5575 0.420957 0.000575496 0.35866 -2.12172 6.01121 49.5288 -71.9571 -32.1803 92.3108 0.71673 -1.38808 30.5673 0.58676 0.000331152 0.0646654 -45.0878 -4.93915 100.49 -2.40267 34.9804 -8.08487 5.06738 -4.35661 -0.891249 0.114293 -1.36425 2.68572 -47.2362 -3.45121 81.618 1.93306 53.1715 -7.01798 -8.18672 -5.66719 1.23993 2.21587 -20.372 -15.844 
-8.91401 96.7118 -15.9863 40.8382 -68.9767 -47.8932 -70.1915 0 88.8779 73.7218 72.3032 12.1406 3.94948 21.9326 2.44117 -149.729 23.9781 174.038 -155.231 63.4721 -170.573 0.423949 -13.0152 -32.6139 -75.5206 51.5236 -80.4948 9.33351 10.8493 -40.7963 0.420957 0.000575496 0.35866 -2.14333 6.00025 49.924 -71.3691 -32.3371 91.5929 1.08948 -2.08752 29.7656 0.58676 0.000331152 0.0646654 -46.5981 -5.30835 98.4703 -2.51029 34.6059 -9.61464 7.06589 -4.77393 -1.07576 0.552553 -3.07704 5.15081 -44.7997 -4.03136 81.4208 1.29256 43.4933 -5.03862 -7.82445 -5.13553 1.20959 2.24351 -20.0572 -18.187 
-9.27773 96.8673 -12.8259 46.1048 -66.5213 -41.9812 -70.1915 0 88.8779 74.2511 71.9751 10.4737 3.44656 21.1892 3.62951 -149.694 24.6335 173.203 -154.629 64.1283 -171.291 0.386487 -13.1996 -32.5016 -77.221 51.3849 -80.204 11.1244 10.6329 -46.4296 0.420957 0.000575496 0.35866 -2.18729 6.03811 50.3855 -72.3607 -32.5377 89.9379 0.545197 -1.15609 29.5442 0.58676 0.000331152 0.0646654 -47.6894 -5.4816 96.2749 -2.60125 35.5097 -10.2858 7.68337 -6.23581 -1.15458 0.552689 -2.70957 4.02045 -43.5406 -5.05359 81.5495 0.913455 33.3271 -1.62347 -6.97106 -0.472488 1.02932 2.16381 -16.5267 -12.4321 
-9.57673 97.0269 -9.60336 50.7367 -64.0162 -36.5413 -70.1915 0 88.8779 74.2852 71.599 9.84166 3.47318 20.5997 4.31472 -149.49 25.3164 172.477 -155.082 64.8923 -171.073 0.327527 -13.4938 -32.3215 -77.781 51.0752 -80.8072 13.499 10.7639 -51.6706 0.420957 0.000575496 0.35866 -2.11222 5.78895 50.6578 -75.0298 -32.5457 87.7486 0.0513106 -0.288698 29.7396 0.58676 0.000331152 0.0646654 -49.0258 -5.57512 93.0386 -2.77612 36.5168 -10.912 6.86882 -7.79567 -1.11885 0.389583 -2.41376 4.0869 -42.9314 -5.84781 81.8904 1.14812 24.4562 4.79838 -4.08331 7.43594 0.388109 2.23871 -12.0682 -13.0004 
-9.74428 97.1564 -6.40601 54.8477 -61.3166 -31.5939 -70.1915 0 88.8779 73.6361 71.1646 10.9203 4.23475 20.3006 3.98002 -149.192 26.0406 171.781 -154.947 65.6415 -171.558 0.388044 -13.267 -31.9333 -74.4558 50.2021 -85.8291 14.7017 10.5827 -54.5384 0.420957 0.000575496 0.35866 -2.02742 5.56913 50.6106 -77.552 -32.4973 86.1164 -0.728717 1.05206 30.1013 0.58676 0.000331152 0.0646654 -50.8421 -5.62442 89.5987 -2.94174 36.813 -12.355 5.9302 -7.95917 -1.06877 1.48691 -4.73496 4.61326 -42.3436 -7.47692 81.5383 1.81288 18.7386 8.43898 -1.9267 13.8675 -0.423364 1.92203 -5.90717 -11.0055 
-10.066 97.2661 -3.42274 58.2552 -58.0252 -27.4151 -70.1915 0 88.8779 72.6867 71.1869 11.9963 4.45933 20.2935 4.44929 -148.436 27.4282 171.541 -155.313 67.0988 -171.13 0.40147 -13.1684 -32.209 -67.5739 47.6503 -94.9508 14.1303 10.0592 -54.7822 0.420957 0.000575496 0.35866 -1.90235 5.40708 49.5128 -80.0425 -32.352 84.1416 -1.24221 1.91121 30.3828 0.58676 0.000331152 0.0646654 -52.151 -5.41569 86.1831 -3.09237 37.1398 -13.8559 5.60463 -8.05423 -1.05172 2.2191 -6.20401 4.81525 -41.3535 -9.60655 81.1386 2.34631 15.9832 9.39477 -0.350571 18.1284 -1.13535 1.30515 0.66378 -8.24345 
-10.4819 97.3924 -0.345424 61.6662 -54.868 -23.4138 -70.1915 0 88.8779 72.9645 71.6542 12.0088 4.55245 20.7753 4.46368 -146.901 28.8855 170.434 -155.499 68.7128 -170.577 0.454964 -12.9116 -32.2908 -59.9937 42.9153 -104.988 13.061 9.56108 -53.9543 0.420957 0.000575496 0.35866 -1.9083 5.37654 49.803 -81.5346 -30.9117 82.417 -3.47942 5.6156 30.8138 0.58676 0.000331152 0.0646654 -53.7929 -4.7354 84.0157 -3.2698 37.2959 -15.826 5.7094 -7.05546 -1.02925 3.59679 -8.92925 5.25515 -41.1559 -11.413 80.8185 2.44424 15.2541 10.3837 1.71139 20.9139 -1.96543 0.255306 8.11724 -5.28966 
-11.0644 97.3666 2.56641 65.104 -50.8165 -19.5041 -70.1915 0 88.8779 75.1317 72.0236 9.78777 4.12051 21.0001 4.52024 -145.71 30.2869 169.477 -157.258 70.3344 -168.766 0.436247 -13.0046 -32.2352 -54.7194 37.4094 -112.66 12.6706 9.18882 -54.1757 0.420957 0.000575496 0.35866 -1.95247 5.50224 49.7761 -82.2685 -29.2507 81.5052 -6.01708 9.80909 31.0536 0.58676 0.000331152 0.0646654 -54.8533 -4.17455 81.7295 -3.44925 37.9833 -17.3071 6.02242 -7.15084 -1.05132 3.97591 -9.616 5.14467 -41.5584 -13.434 80.3312 2.42776 16.6986 12.4336 2.25383 23.1504 -2.35404 -0.295451 11.7373 -4.16889 
